<svg xmlns="http://www.w3.org/2000/svg" viewBox="0 0 400 400" width="400" height="400">
  <!-- T-shirt body -->
  <path d="M 130,55 C 160,55 170,75 200,75 C 230,75 240,55 270,55
    L 320,65 L 370,85 L 390,140 L 355,150 L 355,355 L 45,355 L 45,150 L 10,140 L 30,85 L 80,65 Z"
    fill="#fafff5" stroke="#e5e7eb" stroke-width="1.5"/>
  <path d="M 130,55 C 155,85 175,90 200,90 C 225,90 245,85 270,55"
    fill="none" stroke="#e5e7eb" stroke-width="1.5"/>
  <!-- Botanical design on chest -->
  <g transform="translate(200,230)">
    <path d="M 0,60 Q -3,-10 0,-60" fill="none" stroke="#4d7c0f" stroke-width="2" stroke-linecap="round"/>
    <path d="M 0,20 Q -30,-10 -45,-30 Q -20,-25 0,-5" fill="#84cc16" opacity="0.85"/>
    <path d="M 0,-10 Q -28,-35 -40,-55 Q -18,-48 0,-30" fill="#65a30d" opacity="0.8"/>
    <path d="M 0,20 Q 30,-10 45,-30 Q 20,-25 0,-5" fill="#a3e635" opacity="0.8"/>
    <path d="M 0,-10 Q 28,-35 40,-55 Q 18,-48 0,-30" fill="#84cc16" opacity="0.75"/>
    <ellipse cx="-1" cy="-62" rx="6" ry="10" fill="#4d7c0f" opacity="0.9" transform="rotate(-5 -1 -62)"/>
    <text x="0" y="90" text-anchor="middle" font-family="Arial, sans-serif" font-size="9" font-weight="700" fill="#6b7280" letter-spacing="3">BOTANICAL</text>
  </g>
</svg>
