<svg xmlns="http://www.w3.org/2000/svg" viewBox="0 0 400 400" width="400" height="400">
  <!-- T-shirt body -->
  <path d="M 130,55 C 160,55 170,75 200,75 C 230,75 240,55 270,55
    L 320,65 L 370,85 L 390,140 L 355,150 L 355,355 L 45,355 L 45,150 L 10,140 L 30,85 L 80,65 Z"
    fill="#ffffff" stroke="#e5e7eb" stroke-width="1.5"/>
  <!-- Collar -->
  <path d="M 130,55 C 155,85 175,90 200,90 C 225,90 245,85 270,55"
    fill="none" stroke="#e5e7eb" stroke-width="1.5"/>
  <!-- Wave design on chest -->
  <g transform="translate(200,215)">
    <path d="M -90,0 Q -60,-30 -30,0 Q 0,30 30,0 Q 60,-30 90,0" fill="none" stroke="#10b981" stroke-width="3" stroke-linecap="round"/>
    <path d="M -90,22 Q -60,-8 -30,22 Q 0,52 30,22 Q 60,-8 90,22" fill="none" stroke="#10b981" stroke-width="2.5" stroke-linecap="round" opacity="0.7"/>
    <path d="M -90,44 Q -60,14 -30,44 Q 0,74 30,44 Q 60,14 90,44" fill="none" stroke="#10b981" stroke-width="2" stroke-linecap="round" opacity="0.4"/>
    <text x="0" y="90" text-anchor="middle" font-family="Arial, sans-serif" font-size="9" font-weight="700" fill="#9ca3af" letter-spacing="3">MINIMAL WAVE</text>
  </g>
</svg>
