<svg xmlns="http://www.w3.org/2000/svg" viewBox="0 0 400 400" width="400" height="400">
  <!-- T-shirt body -->
  <path d="M 130,55 C 160,55 170,75 200,75 C 230,75 240,55 270,55
    L 320,65 L 370,85 L 390,140 L 355,150 L 355,355 L 45,355 L 45,150 L 10,140 L 30,85 L 80,65 Z"
    fill="#1e293b" stroke="#334155" stroke-width="1.5"/>
  <path d="M 130,55 C 155,85 175,90 200,90 C 225,90 245,85 270,55"
    fill="none" stroke="#334155" stroke-width="1.5"/>
  <!-- Grid design on chest -->
  <g transform="translate(145,170)">
    <line x1="0" y1="0" x2="0" y2="110" stroke="#60a5fa" stroke-width="1.5" opacity="0.8"/>
    <line x1="22" y1="0" x2="22" y2="110" stroke="#60a5fa" stroke-width="1.5" opacity="0.8"/>
    <line x1="44" y1="0" x2="44" y2="110" stroke="#60a5fa" stroke-width="1.5" opacity="0.8"/>
    <line x1="66" y1="0" x2="66" y2="110" stroke="#60a5fa" stroke-width="1.5" opacity="0.8"/>
    <line x1="88" y1="0" x2="88" y2="110" stroke="#60a5fa" stroke-width="1.5" opacity="0.8"/>
    <line x1="110" y1="0" x2="110" y2="110" stroke="#60a5fa" stroke-width="1.5" opacity="0.8"/>
    <line x1="0" y1="0" x2="110" y2="0" stroke="#60a5fa" stroke-width="1.5" opacity="0.8"/>
    <line x1="0" y1="22" x2="110" y2="22" stroke="#60a5fa" stroke-width="1.5" opacity="0.8"/>
    <line x1="0" y1="44" x2="110" y2="44" stroke="#60a5fa" stroke-width="1.5" opacity="0.8"/>
    <line x1="0" y1="66" x2="110" y2="66" stroke="#60a5fa" stroke-width="1.5" opacity="0.8"/>
    <line x1="0" y1="88" x2="110" y2="88" stroke="#60a5fa" stroke-width="1.5" opacity="0.8"/>
    <line x1="0" y1="110" x2="110" y2="110" stroke="#60a5fa" stroke-width="1.5" opacity="0.8"/>
    <circle cx="22" cy="22" r="3" fill="#3b82f6"/>
    <circle cx="88" cy="22" r="3" fill="#3b82f6"/>
    <circle cx="55" cy="55" r="5" fill="#60a5fa"/>
    <circle cx="22" cy="88" r="3" fill="#3b82f6"/>
    <circle cx="88" cy="88" r="3" fill="#3b82f6"/>
    <text x="55" y="135" text-anchor="middle" font-family="Arial, sans-serif" font-size="9" font-weight="700" fill="#64748b" letter-spacing="3">URBAN GRID</text>
  </g>
</svg>
